<svg xmlns="http://www.w3.org/2000/svg" viewBox="0 0 1600 900" role="img" aria-label="Industrial engineering workshop">
  <defs>
    <linearGradient id="bg" x1="0" y1="0" x2="1" y2="1"><stop stop-color="#14171b"/><stop offset=".55" stop-color="#2c333a"/><stop offset="1" stop-color="#f26a21"/></linearGradient>
    <linearGradient id="steel" x1="0" y1="0" x2="1" y2="1"><stop stop-color="#eef1f4"/><stop offset=".45" stop-color="#7d8791"/><stop offset="1" stop-color="#272d33"/></linearGradient>
    <pattern id="grid" width="58" height="58" patternUnits="userSpaceOnUse"><path d="M58 0H0V58" fill="none" stroke="#ffffff" stroke-opacity=".08"/></pattern>
  </defs>
  <rect width="1600" height="900" fill="url(#bg)"/>
  <rect width="1600" height="900" fill="url(#grid)"/>
  <path d="M0 710 C290 610 510 760 790 635 C1110 492 1300 548 1600 430 L1600 900 L0 900Z" fill="#0f1419" opacity=".78"/>
  <g transform="translate(185 255)">
    <rect x="0" y="160" width="650" height="250" rx="18" fill="#202830"/>
    <rect x="72" y="98" width="505" height="110" rx="14" fill="url(#steel)"/>
    <rect x="115" y="245" width="185" height="88" rx="10" fill="#f26a21"/>
    <rect x="360" y="245" width="185" height="88" rx="10" fill="#4f5d6a"/>
    <circle cx="135" cy="410" r="56" fill="#0b0d10" stroke="#7d8791" stroke-width="18"/>
    <circle cx="520" cy="410" r="56" fill="#0b0d10" stroke="#7d8791" stroke-width="18"/>
    <path d="M54 142 H598" stroke="#f26a21" stroke-width="10" stroke-linecap="round"/>
  </g>
  <g transform="translate(940 210)">
    <circle cx="210" cy="220" r="180" fill="none" stroke="#ffffff" stroke-opacity=".18" stroke-width="34"/>
    <circle cx="210" cy="220" r="105" fill="none" stroke="#f26a21" stroke-width="32"/>
    <rect x="42" y="201" width="336" height="38" rx="19" fill="#d9dee4"/>
    <rect x="191" y="52" width="38" height="336" rx="19" fill="#d9dee4"/>
  </g>
</svg>
